<svg width="138" height="27" viewBox="0 0 138 27" fill="none" xmlns="http://www.w3.org/2000/svg">
<path d="M35.572 21.162C34.732 21.162 34.03 20.982 33.466 20.622C32.914 20.262 32.494 19.764 32.206 19.128C31.918 18.492 31.75 17.754 31.702 16.914L33.502 16.428C33.538 16.944 33.616 17.442 33.736 17.922C33.868 18.402 34.078 18.798 34.366 19.11C34.654 19.41 35.056 19.56 35.572 19.56C36.1 19.56 36.496 19.416 36.76 19.128C37.036 18.828 37.174 18.402 37.174 17.85C37.174 17.19 37.024 16.662 36.724 16.266C36.424 15.858 36.046 15.45 35.59 15.042L33.142 12.882C32.662 12.462 32.308 12.006 32.08 11.514C31.852 11.01 31.738 10.392 31.738 9.66C31.738 8.592 32.044 7.764 32.656 7.176C33.268 6.588 34.102 6.294 35.158 6.294C35.734 6.294 36.238 6.372 36.67 6.528C37.114 6.672 37.48 6.9 37.768 7.212C38.068 7.524 38.302 7.92 38.47 8.4C38.65 8.868 38.77 9.42 38.83 10.056L37.102 10.524C37.066 10.044 36.994 9.606 36.886 9.21C36.778 8.802 36.586 8.478 36.31 8.238C36.046 7.986 35.662 7.86 35.158 7.86C34.654 7.86 34.258 7.998 33.97 8.274C33.694 8.538 33.556 8.934 33.556 9.462C33.556 9.906 33.628 10.272 33.772 10.56C33.928 10.848 34.174 11.142 34.51 11.442L36.976 13.602C37.528 14.082 38.014 14.658 38.434 15.33C38.854 15.99 39.064 16.776 39.064 17.688C39.064 18.408 38.914 19.032 38.614 19.56C38.314 20.076 37.9 20.472 37.372 20.748C36.856 21.024 36.256 21.162 35.572 21.162ZM44.0438 21.162C42.9878 21.162 42.1778 20.952 41.6138 20.532C41.0498 20.112 40.6658 19.524 40.4618 18.768C40.2578 18 40.1558 17.106 40.1558 16.086V6.42H42.0998V16.176C42.0998 16.8 42.1418 17.37 42.2258 17.886C42.3098 18.402 42.4898 18.81 42.7658 19.11C43.0538 19.41 43.4798 19.56 44.0438 19.56C44.6198 19.56 45.0458 19.41 45.3218 19.11C45.5978 18.81 45.7778 18.402 45.8618 17.886C45.9458 17.37 45.9878 16.8 45.9878 16.176V6.42H47.9138V16.086C47.9138 17.106 47.8118 18 47.6078 18.768C47.4038 19.524 47.0198 20.112 46.4558 20.532C45.9038 20.952 45.0998 21.162 44.0438 21.162ZM49.6953 21V6.42H53.3133C54.1893 6.42 54.8853 6.582 55.4013 6.906C55.9293 7.218 56.3133 7.674 56.5533 8.274C56.7933 8.874 56.9133 9.6 56.9133 10.452C56.9133 11.22 56.7753 11.886 56.4993 12.45C56.2353 13.014 55.8393 13.452 55.3113 13.764C54.7833 14.064 54.1233 14.214 53.3313 14.214H51.7293V21H49.6953ZM51.7293 12.756H52.6653C53.2533 12.756 53.7153 12.69 54.0513 12.558C54.3873 12.426 54.6273 12.198 54.7713 11.874C54.9153 11.538 54.9873 11.07 54.9873 10.47C54.9873 9.774 54.9333 9.24 54.8253 8.868C54.7293 8.496 54.5193 8.238 54.1953 8.094C53.8713 7.95 53.3673 7.878 52.6833 7.878H51.7293V12.756ZM57.9837 21V6.42H61.6017C62.4777 6.42 63.1737 6.582 63.6897 6.906C64.2177 7.218 64.6017 7.674 64.8417 8.274C65.0817 8.874 65.2017 9.6 65.2017 10.452C65.2017 11.22 65.0637 11.886 64.7877 12.45C64.5237 13.014 64.1277 13.452 63.5997 13.764C63.0717 14.064 62.4117 14.214 61.6197 14.214H60.0177V21H57.9837ZM60.0177 12.756H60.9537C61.5417 12.756 62.0037 12.69 62.3397 12.558C62.6757 12.426 62.9157 12.198 63.0597 11.874C63.2037 11.538 63.2757 11.07 63.2757 10.47C63.2757 9.774 63.2217 9.24 63.1137 8.868C63.0177 8.496 62.8077 8.238 62.4837 8.094C62.1597 7.95 61.6557 7.878 60.9717 7.878H60.0177V12.756ZM69.9981 21.162C69.0141 21.162 68.2281 20.97 67.6401 20.586C67.0521 20.202 66.6321 19.656 66.3801 18.948C66.1281 18.228 66.0021 17.388 66.0021 16.428V10.902C66.0021 9.942 66.1281 9.12 66.3801 8.436C66.6441 7.74 67.0641 7.212 67.6401 6.852C68.2281 6.48 69.0141 6.294 69.9981 6.294C70.9821 6.294 71.7621 6.48 72.3381 6.852C72.9141 7.224 73.3281 7.752 73.5801 8.436C73.8441 9.12 73.9761 9.942 73.9761 10.902V16.446C73.9761 17.394 73.8441 18.222 73.5801 18.93C73.3281 19.638 72.9141 20.19 72.3381 20.586C71.7621 20.97 70.9821 21.162 69.9981 21.162ZM69.9981 19.56C70.5381 19.56 70.9461 19.452 71.2221 19.236C71.4981 19.008 71.6841 18.696 71.7801 18.3C71.8761 17.892 71.9241 17.418 71.9241 16.878V10.488C71.9241 9.948 71.8761 9.486 71.7801 9.102C71.6841 8.706 71.4981 8.406 71.2221 8.202C70.9461 7.986 70.5381 7.878 69.9981 7.878C69.4581 7.878 69.0441 7.986 68.7561 8.202C68.4801 8.406 68.2941 8.706 68.1981 9.102C68.1021 9.486 68.0541 9.948 68.0541 10.488V16.878C68.0541 17.418 68.1021 17.892 68.1981 18.3C68.2941 18.696 68.4801 19.008 68.7561 19.236C69.0441 19.452 69.4581 19.56 69.9981 19.56ZM75.6153 21V6.42H78.5493C79.5213 6.42 80.3253 6.552 80.9613 6.816C81.5973 7.068 82.0653 7.482 82.3653 8.058C82.6773 8.622 82.8333 9.366 82.8333 10.29C82.8333 10.854 82.7733 11.37 82.6533 11.838C82.5333 12.294 82.3413 12.684 82.0773 13.008C81.8133 13.32 81.4653 13.548 81.0333 13.692L83.1033 21H81.1413L79.2333 14.16H77.6493V21H75.6153ZM77.6493 12.702H78.4233C78.9993 12.702 79.4673 12.63 79.8273 12.486C80.1873 12.342 80.4513 12.096 80.6193 11.748C80.7873 11.4 80.8713 10.914 80.8713 10.29C80.8713 9.438 80.7153 8.826 80.4033 8.454C80.0913 8.07 79.4733 7.878 78.5493 7.878H77.6493V12.702ZM86.1912 21V7.932H83.7252V6.42H90.6192V7.932H88.2252V21H86.1912Z" fill="#07395C"/>
<path d="M98.8561 21.162C98.0161 21.162 97.3141 20.982 96.7501 20.622C96.1981 20.262 95.7781 19.764 95.4901 19.128C95.2021 18.492 95.0341 17.754 94.9861 16.914L96.7861 16.428C96.8221 16.944 96.9001 17.442 97.0201 17.922C97.1521 18.402 97.3621 18.798 97.6501 19.11C97.9381 19.41 98.3401 19.56 98.8561 19.56C99.3841 19.56 99.7801 19.416 100.044 19.128C100.32 18.828 100.458 18.402 100.458 17.85C100.458 17.19 100.308 16.662 100.008 16.266C99.7081 15.858 99.3301 15.45 98.8741 15.042L96.4261 12.882C95.9461 12.462 95.5921 12.006 95.3641 11.514C95.1361 11.01 95.0221 10.392 95.0221 9.66C95.0221 8.592 95.3281 7.764 95.9401 7.176C96.5521 6.588 97.3861 6.294 98.4421 6.294C99.0181 6.294 99.5221 6.372 99.9541 6.528C100.398 6.672 100.764 6.9 101.052 7.212C101.352 7.524 101.586 7.92 101.754 8.4C101.934 8.868 102.054 9.42 102.114 10.056L100.386 10.524C100.35 10.044 100.278 9.606 100.17 9.21C100.062 8.802 99.8701 8.478 99.5941 8.238C99.3301 7.986 98.9461 7.86 98.4421 7.86C97.9381 7.86 97.5421 7.998 97.2541 8.274C96.9781 8.538 96.8401 8.934 96.8401 9.462C96.8401 9.906 96.9121 10.272 97.0561 10.56C97.2121 10.848 97.4581 11.142 97.7941 11.442L100.26 13.602C100.812 14.082 101.298 14.658 101.718 15.33C102.138 15.99 102.348 16.776 102.348 17.688C102.348 18.408 102.198 19.032 101.898 19.56C101.598 20.076 101.184 20.472 100.656 20.748C100.14 21.024 99.5401 21.162 98.8561 21.162ZM105.168 21V7.932H102.702V6.42H109.596V7.932H107.202V21H105.168ZM114.403 21.162C113.347 21.162 112.537 20.952 111.973 20.532C111.409 20.112 111.025 19.524 110.821 18.768C110.617 18 110.515 17.106 110.515 16.086V6.42H112.459V16.176C112.459 16.8 112.501 17.37 112.585 17.886C112.669 18.402 112.849 18.81 113.125 19.11C113.413 19.41 113.839 19.56 114.403 19.56C114.979 19.56 115.405 19.41 115.681 19.11C115.957 18.81 116.137 18.402 116.221 17.886C116.305 17.37 116.347 16.8 116.347 16.176V6.42H118.273V16.086C118.273 17.106 118.171 18 117.967 18.768C117.763 19.524 117.379 20.112 116.815 20.532C116.263 20.952 115.459 21.162 114.403 21.162ZM120.055 21V6.42H123.223C124.303 6.42 125.155 6.588 125.779 6.924C126.415 7.248 126.865 7.74 127.129 8.4C127.405 9.06 127.543 9.882 127.543 10.866V16.23C127.543 17.262 127.405 18.132 127.129 18.84C126.865 19.548 126.427 20.088 125.815 20.46C125.215 20.82 124.405 21 123.385 21H120.055ZM122.089 19.542H123.241C123.985 19.542 124.513 19.398 124.825 19.11C125.137 18.822 125.323 18.402 125.383 17.85C125.455 17.298 125.491 16.632 125.491 15.852V11.118C125.491 10.362 125.443 9.75 125.347 9.282C125.251 8.814 125.041 8.472 124.717 8.256C124.393 8.04 123.883 7.932 123.187 7.932H122.089V19.542ZM131.419 21V15.852L128.269 6.42H130.159L132.391 13.458L134.587 6.42H136.495L133.363 15.852V21H131.419Z" fill="#DF3940"/>
<path d="M10.653 9.55012L12.4663 11.3398C13.0886 11.9536 14.0928 11.9539 14.7153 11.3401L16.2059 9.87047L16.5186 9.54072L25.2353 0.882141C25.563 0.556699 25.331 6.12101e-05 24.8674 6.12101e-05H21.805C20.8205 6.12101e-05 19.876 0.38861 19.1799 1.08004L13.5906 6.63216L11.7435 4.79712C11.0623 4.12046 10.138 3.74023 9.17462 3.74023H4.8233L10.6625 9.54072L10.653 9.55012" fill="#DF3940"/>
<path d="M16.5284 17.4502L14.7167 15.6627C14.0936 15.0478 13.0875 15.0475 12.4641 15.6621L10.9755 17.1301L10.6627 17.4596L1.94413 26.1201C1.61704 26.445 1.84871 27.0002 2.31122 27.0002H5.40773C6.37223 27.0002 7.29725 26.6198 7.97899 25.9426L13.5908 20.3684L15.4125 22.1777C16.1099 22.8707 17.056 23.2601 18.0427 23.2601H22.3581L16.5186 17.4599L16.5284 17.4502Z" fill="#DF3940"/>
<path d="M6.67661 13.5002L4.8433 15.3212C4.15317 16.0068 3.76527 16.9369 3.76527 17.9063V22.2092L9.60443 16.4087L9.61416 16.4184L11.4207 14.6121C12.0405 13.9924 12.0387 12.9911 11.4161 12.3737L0.880436 1.92442C0.555243 1.60166 0 1.8307 0 2.28691V5.34585C0 6.32755 0.384943 7.25071 1.08372 7.94482L6.67661 13.5002Z" fill="#07395C"/>
<path d="M26.1136 19.0671L20.5361 13.5005L22.387 11.6531C23.0576 10.9839 23.4339 10.078 23.4339 9.13361V4.7882L17.6199 10.5911L17.6102 10.5817L15.8307 12.3687C15.2178 12.9841 15.2138 13.9736 15.8218 14.5939L17.611 16.4203L17.6207 16.4107L26.3182 25.0921C26.6361 25.4095 27.1814 25.1858 27.1814 24.7382V21.64C27.1814 20.6685 26.8021 19.755 26.1136 19.0671Z" fill="#07395C"/>
</svg>
